# xmcd
#
# Track frame offsets:
#	150
#	14374
#	25711
#	37833
#	49070
#	60350
#	78426
#	92627
#	106415
#	114680
#	131543
#	145982
#	152594
#	161709
#	170931
#	182331
#	196995
#	204880
#	214167
#	229691
#	238615
#	245437
#	260856
#	269742
#	280451
#	297020
#
# Disc length: 4166 seconds
#
# Revision: 1
# Processed by: cddbd v1.5.1PL0 Copyright (c) Steve Scherf et al.
# Submitted via: audiograbber 1.83.01
#
DISCID=7410441a
DTITLE=Traynham, Mac - I'm Going That Way
DYEAR=2004
DGENRE=Bluegrass
TTITLE0=French Waltz
TTITLE1=Greasy Meat
TTITLE2=Take Me In Your Lifeboat
TTITLE3=The Half-Shaved 'Yuppie'
TTITLE4=New Jordan
TTITLE5=Pretty Crowing Chicken
TTITLE6=Pretty Little Indian
TTITLE7=Sally Long
TTITLE8=Lost Gal (In The Flatwoods)
TTITLE9=Man Of Constant Sorrow
TTITLE10=My Old Cottage Home
TTITLE11=Sally Cuttin' Through The Rye
TTITLE12=Jimalong
TTITLE13=Sandy River
TTITLE14=I Love My Savior Too
TTITLE15=Pretty Saro
TTITLE16=Yellow Cat
TTITLE17=Indian And The Woodchuck
TTITLE18=Walls Of Jericho
TTITLE19=You'll Never Miss Your Mama Till She's Gone
TTITLE20=Old Cotton-Eyed Joe
TTITLE21=The Dream Of The Miner's Child
TTITLE22=Singing BIrds
TTITLE23=Old Corn Licker
TTITLE24=Warfare
TTITLE25=I'm Going That Way
EXTD=
EXTT0=
EXTT1=
EXTT2=
EXTT3=
EXTT4=
EXTT5=
EXTT6=
EXTT7=
EXTT8=
EXTT9=
EXTT10=
EXTT11=
EXTT12=
EXTT13=
EXTT14=
EXTT15=
EXTT16=
EXTT17=
EXTT18=
EXTT19=
EXTT20=
EXTT21=
EXTT22=
EXTT23=
EXTT24=
EXTT25=
PLAYORDER=
